<?xml version="1.0" encoding="iso-8859-1"?>
<!-- Generator: Adobe Illustrator 19.0.0, SVG Export Plug-In . SVG Version: 6.00 Build 0)  -->
<svg version="1.1" id="Capa_1" xmlns="http://www.w3.org/2000/svg" xmlns:xlink="http://www.w3.org/1999/xlink" x="0px" y="0px"
	 viewBox="0 0 512 512" style="enable-background:new 0 0 512 512;" xml:space="preserve">
<g>
	<g>
		<g>
			<path d="M247.467,102.4c4.713,0,8.533-3.821,8.533-8.533V59.733c0-4.713-3.82-8.533-8.533-8.533s-8.533,3.82-8.533,8.533v34.133
				C238.933,98.579,242.754,102.4,247.467,102.4z"/>
			<path d="M494.933,460.8h-17.067V298.667c9.422-0.009,17.057-7.645,17.067-17.067V170.667
				c-0.009-9.422-7.645-17.057-17.067-17.067h-51.2c-9.422,0.009-17.057,7.645-17.067,17.067h-68.267v-76.8
				c-0.015-14.132-11.468-25.585-25.6-25.6H307.2V25.6V8.533C307.2,3.82,303.38,0,298.667,0s-8.533,3.82-8.533,8.533v8.533h-68.267
				V8.533c0-4.713-3.821-8.533-8.533-8.533c-4.713,0-8.533,3.82-8.533,8.533V25.6v42.667h-8.533
				c-14.132,0.015-25.585,11.468-25.6,25.6v76.8H102.4c-0.009-9.422-7.645-17.057-17.067-17.067h-51.2
				c-9.422,0.009-17.057,7.645-17.067,17.067V281.6c0.009,9.422,7.645,17.057,17.067,17.067V460.8H17.067
				C7.645,460.809,0.009,468.445,0,477.867v17.067c0.009,9.422,7.645,17.057,17.067,17.067h145.067h187.733h145.067
				c9.422-0.009,17.057-7.645,17.067-17.067v-17.067C511.991,468.445,504.355,460.809,494.933,460.8z M460.8,460.8h-17.067V298.667
				H460.8V460.8z M342.98,460.8l-6.571-17.521c-3.774-9.971-13.309-16.579-23.971-16.613H199.563
				c-10.662,0.034-20.198,6.642-23.975,16.613l-6.57,17.521H85.333V298.667c9.422-0.009,17.057-7.645,17.067-17.067V256h17.067
				v8.533c0.009,9.422,7.645,17.057,17.067,17.067H153.6v17.067c0,4.713,3.82,8.533,8.533,8.533s8.533-3.82,8.533-8.533V281.6
				h17.067c9.422-0.009,17.057-7.645,17.067-17.067V256h204.8v25.6c0.009,9.422,7.645,17.057,17.067,17.067V460.8H342.98z
				 M409.6,238.933H204.8v-17.067h204.8V238.933z M187.741,247.32c-0.001,0.049-0.007,0.097-0.007,0.147
				c0,0.05,0.007,0.099,0.008,0.149l0.005,16.918h-51.212v-42.667h51.2L187.741,247.32z M119.467,238.933H102.4v-17.067h17.067
				V238.933z M426.667,170.667h51.2l0.012,110.933h-8.546H435.2h-8.533v-68.267V179.2V170.667z M290.133,34.133v85.333h-68.267
				V34.133H290.133z M187.733,93.867c0.006-4.71,3.823-8.527,8.533-8.533h8.533V128v17.067c0,4.713,3.821,8.533,8.533,8.533
				c4.713,0,8.533-3.821,8.533-8.533v-8.533h68.267v8.533c0,4.713,3.82,8.533,8.533,8.533s8.533-3.821,8.533-8.533V128V85.333h8.533
				c4.71,0.006,8.527,3.823,8.533,8.533v76.8H187.733V93.867z M409.6,187.733V204.8H187.733h-51.2H102.4v-17.067H409.6z
				 M34.133,170.667h51.2l0.001,8.514c0,0.006-0.001,0.013-0.001,0.019v34.133c0,0.032,0.004,0.063,0.005,0.096l0.004,33.867
				c-0.001,0.057-0.009,0.113-0.009,0.171c0,0.058,0.008,0.114,0.009,0.172l0.004,33.961H76.8H42.667h-8.533V170.667z M51.2,298.667
				h17.067V460.8H51.2V298.667z M17.067,477.867h25.6H76.8h85.818l-6.4,17.067H17.067V477.867z M174.446,494.933l17.121-45.658
				c1.26-3.325,4.44-5.529,7.996-5.542h112.875c3.554,0.011,6.733,2.214,7.992,5.538l17.125,45.662H174.446z M494.933,494.933
				H355.781l-6.401-17.067H435.2h34.133h25.6V494.933z"/>
		</g>
	</g>
</g>
<g>
</g>
<g>
</g>
<g>
</g>
<g>
</g>
<g>
</g>
<g>
</g>
<g>
</g>
<g>
</g>
<g>
</g>
<g>
</g>
<g>
</g>
<g>
</g>
<g>
</g>
<g>
</g>
<g>
</g>
</svg>
