<svg height="512.10507pt" viewBox="0 0 512.10507 512.10507" width="512.10507pt" xmlns="http://www.w3.org/2000/svg"><path d="m108.539062 403.566406c-1.601562-1.601562-3.769531-2.5-6.035156-2.5-2.261718 0-4.433594.898438-6.03125 2.5l-93.867187 93.867188c-2.21875 2.140625-3.109375 5.316406-2.328125 8.296875.78125 2.984375 3.113281 5.316406 6.09375 6.097656 2.984375.78125 6.15625-.109375 8.300781-2.328125l93.867187-93.867188c1.601563-1.597656 2.5-3.769531 2.5-6.03125 0-2.265624-.898437-4.433593-2.5-6.035156zm0 0"/><path d="m503.570312 315.734375h-136.53125c-4.714843 0-8.535156 3.820313-8.535156 8.53125 0 4.714844 3.820313 8.535156 8.535156 8.535156h136.53125c4.714844 0 8.535157-3.820312 8.535157-8.535156 0-4.710937-3.820313-8.53125-8.535157-8.53125zm0 0"/><path d="m196.371094 136.535156v-128c0-4.714844-3.820313-8.535156-8.53125-8.535156-4.714844 0-8.535156 3.820312-8.535156 8.535156v128c0 4.710938 3.820312 8.53125 8.535156 8.53125 4.710937 0 8.53125-3.820312 8.53125-8.53125zm0 0"/><path d="m247.570312 68.265625c4.714844 0 8.535157-3.820313 8.535157-8.53125v-14.484375l15.632812-23.449219c2.5625-3.921875 1.484375-9.171875-2.410156-11.769531s-9.15625-1.570312-11.789063 2.300781l-9.96875 14.953125-9.964843-14.953125c-1.679688-2.566406-4.605469-4.035156-7.667969-3.847656s-5.785156 2.003906-7.136719 4.757813c-1.351562 2.753906-1.121093 6.023437.605469 8.558593l15.632812 23.449219v14.484375c0 4.710937 3.820313 8.53125 8.53125 8.53125zm0 0"/><path d="m136.636719 503.464844c0-4.710938-3.820313-8.53125-8.53125-8.53125h-16.375l23.039062-28.804688c2.050781-2.5625 2.449219-6.070312 1.027344-9.027344-1.421875-2.957031-4.410156-4.835937-7.691406-4.835937h-34.132813c-4.714844 0-8.535156 3.820313-8.535156 8.535156 0 4.710938 3.820312 8.53125 8.535156 8.53125h16.375l-23.042968 28.804688c-2.046876 2.5625-2.445313 6.070312-1.023438 9.027343 1.421875 2.957032 4.410156 4.835938 7.691406 4.835938h34.132813c4.710937 0 8.53125-3.820312 8.53125-8.535156zm0 0"/><path d="m500.371094 351.738281c-3.683594-2.941406-9.050782-2.34375-12 1.332031l-10.398438 13-10.402344-13c-2.941406-3.679687-8.3125-4.28125-11.996093-1.335937-3.679688 2.941406-4.277344 8.3125-1.335938 11.996094l12.800781 16.003906-12.800781 16.003906c-2.941406 3.679688-2.34375 9.050781 1.335938 11.996094 3.683593 2.941406 9.054687 2.34375 11.996093-1.339844l10.402344-13 10.398438 13c2.945312 3.683594 8.316406 4.28125 11.996094 1.339844 3.683593-2.945313 4.28125-8.316406 1.335937-11.996094l-12.796875-16.003906 12.796875-16.003906c2.945313-3.679688 2.347656-9.050781-1.332031-11.992188zm0 0"/><path d="m290.238281 380.46875 59.734375-59.734375v-146.535156l-59.734375 59.734375zm0 0"/><path d="m278.171875 221.867188 59.734375-59.734376h-146.535156l-59.734375 59.734376zm0 0"/><path d="m119.570312 392.535156h17.066407v-76.800781c0-4.714844 3.820312-8.535156 8.535156-8.535156 4.710937 0 8.53125 3.820312 8.53125 8.535156v76.800781h17.070313v-42.667968c0-4.714844 3.820312-8.535157 8.53125-8.535157 4.714843 0 8.535156 3.820313 8.535156 8.535157v42.667968h17.066406v-17.070312c0-4.710938 3.820312-8.53125 8.53125-8.53125 4.714844 0 8.535156 3.820312 8.535156 8.53125v17.070312h51.199219v-153.601562h-153.601563zm0 0"/></svg>