<svg height="512pt" viewBox="0 0 512 512" width="512pt" xmlns="http://www.w3.org/2000/svg"><path d="m332 90h81.210938l-81.210938-81.210938zm0 0"/><path d="m105 0c-8.289062 0-15 6.710938-15 15v227h332v-122h-105c-8.289062 0-15-6.710938-15-15v-105zm0 0"/><path d="m482 166c0-8.285156-6.714844-15-15-15h-15v91h30zm0 0"/><path d="m30 166v76h30v-91h-15c-8.285156 0-15 6.714844-15 15zm0 0"/><path d="m120 482h272v30h-272zm0 0"/><path d="m120 422h272v30h-272zm0 0"/><path d="m467 272h-422c-24.8125 0-45 20.1875-45 45v150c0 24.8125 20.1875 45 45 45h45v-105c0-8.289062 6.710938-15 15-15h302c8.289062 0 15 6.710938 15 15v105h45c24.8125 0 45-20.1875 45-45v-150c0-24.8125-20.1875-45-45-45zm-392.027344 90c-8.285156 0-15-6.714844-15-15s6.714844-15 15-15 15 6.714844 15 15-6.714844 15-15 15zm362 0c-8.285156 0-15-6.714844-15-15s6.714844-15 15-15 15 6.714844 15 15-6.714844 15-15 15zm0 0"/></svg>